<svg xmlns="http://www.w3.org/2000/svg" version="1.1" xmlns:xlink="http://www.w3.org/1999/xlink" xmlns:svgjs="http://svgjs.com/svgjs" width="25" height="25"><svg width="25" height="25" viewBox="0 0 25 25" fill="none" xmlns="http://www.w3.org/2000/svg">
<path d="M24.5 12.9693V24.4997H17.2994V7.69999H0.5V0.5H12.0301C12.3308 0.500089 12.6192 0.619486 12.832 0.831985L14.8997 2.89969L19.6996 7.69999L22.0993 10.0997L24.168 12.1669C24.3806 12.3798 24.5001 12.6684 24.5 12.9693Z" fill="#00E5BC"></path>
<path d="M16.1003 17.0046V24.4995H8.89972V16.0972H0.5V8.89722H7.99463C8.09141 8.89717 8.18726 8.91623 8.27667 8.95329C8.36608 8.99036 8.4473 9.0447 8.51567 9.11321L9.85961 10.4571L12.9799 13.5774L14.5394 15.1396L15.8838 16.4835C15.9524 16.5519 16.0068 16.6331 16.0439 16.7225C16.081 16.8119 16.1002 16.9078 16.1003 17.0046Z" fill="#00E5BC"></path>
<path d="M7.70008 17.3H0.5V24.5H7.70008V17.3Z" fill="#00E5BC"></path>
</svg><style>@media (prefers-color-scheme: light) { :root { filter: none; } }
</style></svg>