<svg width="21" height="19" viewBox="0 0 21 19" fill="none" xmlns="http://www.w3.org/2000/svg">
<path d="M15.225 17.2331C11.6526 17.2291 8.2279 15.9854 5.70185 13.7747C3.1758 11.564 1.75463 8.56688 1.75 5.44052C1.75 4.50631 2.17406 3.61035 2.9289 2.94976C3.68373 2.28917 4.7075 1.91806 5.775 1.91806C6.00105 1.91655 6.22672 1.9345 6.44875 1.97166C6.6634 1.99946 6.87441 2.04562 7.07875 2.10949C7.22247 2.15362 7.35053 2.22982 7.45028 2.33055C7.55003 2.43127 7.61801 2.55304 7.6475 2.68381L8.84625 7.27833C8.87856 7.40305 8.87467 7.53286 8.83493 7.65591C8.79519 7.77897 8.72087 7.89136 8.61875 7.98283C8.505 8.09003 8.49625 8.09769 7.42 8.58777C8.28187 10.2425 9.79405 11.5713 11.6813 12.3323C12.25 11.3828 12.2587 11.3751 12.3813 11.2756C12.4858 11.1862 12.6142 11.1212 12.7548 11.0864C12.8954 11.0516 13.0437 11.0482 13.1863 11.0765L18.4363 12.1256C18.5809 12.1549 18.7146 12.216 18.8248 12.3031C18.935 12.3902 19.0181 12.5004 19.0663 12.6233C19.1401 12.8051 19.1957 12.9921 19.2325 13.1823C19.2677 13.3748 19.2853 13.5694 19.285 13.7643C19.2689 14.6945 18.8329 15.5814 18.0722 16.2313C17.3116 16.8812 16.288 17.2413 15.225 17.2331Z" fill="#03CDB7"/>
</svg>
