<svg width="129" height="102" viewBox="0 0 129 102" fill="none" xmlns="http://www.w3.org/2000/svg">
<path d="M128.431 101.733H73.1568V52.3971C73.0552 37.17 77.8772 25.3943 87.6225 17.0702C95.8452 10.0657 106.809 4.53317 120.513 0.472596L128.279 16.9179C115.387 21.6891 107.722 27.3231 105.286 33.82C104.068 36.8655 103.51 40.52 103.611 44.7836H128.431V101.733ZM55.4933 101.733H0.218751V52.3971C0.218751 37.17 5.09144 25.3943 14.8368 17.0702C23.0595 10.0657 33.9722 4.53317 47.5752 0.472596L55.1887 16.9179C42.4994 21.8921 34.9366 27.5261 32.5003 33.82C31.2821 36.8655 30.673 40.52 30.673 44.7836H55.4933V101.733Z" fill="url(#paint0_linear_636_2363)"/>
<defs>
<linearGradient id="paint0_linear_636_2363" x1="66" y1="-139" x2="66" y2="364" gradientUnits="userSpaceOnUse">
<stop offset="0.204861" stop-color="#0988A6" stop-opacity="0.51"/>
<stop offset="0.222331" stop-color="#0B6E9F" stop-opacity="0.45"/>
<stop offset="1" stop-color="#05B5B1" stop-opacity="0.36"/>
</linearGradient>
</defs>
</svg>
