<svg width="24" height="24" viewBox="0 0 24 24" fill="none" xmlns="http://www.w3.org/2000/svg">
<g id="tabler:mail-filled" clip-path="url(#clip0_516_1243)">
<g id="Group">
<path id="Vector" d="M22 7.53491V16.9999C22 17.7651 21.7077 18.5014 21.1827 19.0582C20.6578 19.6149 19.9399 19.95 19.176 19.9949L19 19.9999H5C4.23479 20 3.49849 19.7076 2.94174 19.1826C2.38499 18.6577 2.04989 17.9398 2.005 17.1759L2 16.9999V7.53491L11.445 13.8319L11.561 13.8979C11.6977 13.9647 11.8478 13.9994 12 13.9994C12.1522 13.9994 12.3023 13.9647 12.439 13.8979L12.555 13.8319L22 7.53491Z" fill="#03CDB7"/>
<path id="Vector_2" d="M19.0003 4C20.0803 4 21.0273 4.57 21.5553 5.427L12.0003 11.797L2.44531 5.427C2.69604 5.01977 3.04053 4.6784 3.45002 4.43138C3.85951 4.18436 4.32214 4.03886 4.79931 4.007L5.00031 4H19.0003Z" fill="#03CDB7"/>
</g>
</g>
<defs>
<clipPath id="clip0_516_1243">
<rect width="24" height="24" fill="white"/>
</clipPath>
</defs>
</svg>
